<?xml version="1.0" encoding="utf-8"?>
<svg viewBox="132.0295 144.0281 122.4306 36" xmlns="http://www.w3.org/2000/svg">
  <g id="SvgjsG1018" featurekey="inlineMonogramFeature-0" transform="matrix(2.3225810527801514, 0, 0, 2.3225810527801514, 130.21788024902344, 132.41525268554688)" fill="#6DEA88">
    <path d="M13 14.36 q-0.12 -0.12 -0.17 -0.29 t-0.01 -0.33 q0.1 -0.64 0.1 -1.14 q0 -2.06 -1.22 -3.36 q-1.28 -1.34 -3.38 -1.34 t-3.38 1.34 q-1.22 1.3 -1.22 3.36 t1.22 3.36 q1.28 1.34 3.38 1.34 q0.84 0 1.5 -0.2 l-1.14 -1.14 q-0.2 -0.24 -0.2 -0.5 t0.2 -0.5 l1.08 -1.08 q0.22 -0.22 0.51 -0.22 t0.49 0.22 l4.34 4.34 q0.22 0.2 0.22 0.49 t-0.22 0.51 l-1.08 1.08 q-0.18 0.2 -0.49 0.2 t-0.51 -0.2 l-0.98 -1 q-1.64 0.9 -3.72 0.9 q-3.32 0 -5.46 -2.22 q-2.08 -2.18 -2.08 -5.38 t2.08 -5.38 q2.16 -2.22 5.47 -2.22 t5.45 2.24 q2.08 2.14 2.08 5.36 q0 1.42 -0.46 2.74 q-0.06 0.18 -0.19 0.3 t-0.31 0.14 q-0.38 0.1 -0.66 -0.18 z" fill="#6DEA88"/>
  </g>
  <g id="SvgjsG1019" featurekey="nameRightFeature-0" transform="matrix(2.3630731105804443, 0, 0, 2.3630731105804443, 169.0755615234375, 132.21278381347656)" fill="#FFFFFF">
    <path d="M8.1055 9.961 l2.8125 0 l0 10.039 l-2.666 0 l-0.068359 -1.2109 c-0.70313 0.88867 -1.8164 1.4063 -3.1934 1.4063 c-2.4121 0 -3.7402 -1.2598 -3.7402 -3.4766 l0 -6.7578 l2.8223 0 l0 6.1523 c0 1.3281 0.83008 1.8164 1.8066 1.8164 c1.1621 0 2.2168 -0.58594 2.2266 -2.4316 l0 -5.5371 z M20.947246874999998 5 l2.8125 0 l0 15 l-2.666 0 l-0.068359 -1.3086 c-0.57617 0.98633 -1.7871 1.543 -3.1543 1.543 c-2.6465 0 -4.834 -1.9531 -4.834 -5.2344 s2.1973 -5.2344 4.834 -5.2344 c1.3184 0 2.4805 0.49805 3.0762 1.4063 l0 -6.1719 z M18.515646875 17.9004 c1.4941 0 2.6563 -1.1426 2.6563 -2.9004 s-1.1719 -2.9102 -2.6563 -2.9102 c-1.4941 0 -2.666 1.1035 -2.666 2.9102 c0 1.7969 1.1719 2.9004 2.666 2.9004 z M33.32034375 9.961 l2.8125 0 l0 10.039 l-2.666 0 l-0.068359 -1.2109 c-0.70313 0.88867 -1.8164 1.4063 -3.1934 1.4063 c-2.4121 0 -3.7402 -1.2598 -3.7402 -3.4766 l0 -6.7578 l2.8223 0 l0 6.1523 c0 1.3281 0.83008 1.8164 1.8066 1.8164 c1.1621 0 2.2168 -0.58594 2.2266 -2.4316 l0 -5.5371 z" fill="#FFFFFF"/>
  </g>
</svg>